<?xml version="1.0" encoding="UTF-8"?>
<svg xmlns="http://www.w3.org/2000/svg" xmlns:xlink="http://www.w3.org/1999/xlink" width="375pt" height="374.999991pt" viewBox="0 0 375 374.999991" version="1.2">
<g id="surface1">
<path style=" stroke:none;fill-rule:nonzero;fill:rgb(41.958618%,43.919373%,36.079407%);fill-opacity:1;" d="M 374.824219 187.589844 C 374.824219 291.089844 290.914062 375 187.410156 375 C 83.910156 375 0 291.089844 0 187.589844 C 0 84.085938 83.910156 0.175781 187.410156 0.175781 C 290.914062 0.175781 374.824219 84.085938 374.824219 187.589844 Z M 374.824219 187.589844 "/>
<path style=" stroke:none;fill-rule:nonzero;fill:rgb(100%,100%,100%);fill-opacity:1;" d="M 302.203125 134.867188 C 294.175781 138.421875 285.53125 140.835938 276.476562 141.914062 C 285.726562 136.367188 292.820312 127.589844 296.183594 117.136719 C 287.519531 122.257812 277.929688 125.992188 267.734375 128 C 259.5625 119.289062 247.914062 113.855469 235.027344 113.855469 C 210.28125 113.855469 190.234375 133.921875 190.234375 158.648438 C 190.234375 162.15625 190.625 165.582031 191.390625 168.863281 C 154.167969 166.984375 121.152344 149.15625 99.066406 122.046875 C 95.199219 128.667969 92.996094 136.367188 92.996094 144.574219 C 92.996094 160.117188 100.90625 173.835938 112.914062 181.863281 C 105.574219 181.632812 98.671875 179.613281 92.621094 176.25 C 92.621094 176.445312 92.621094 176.625 92.621094 176.820312 C 92.621094 198.515625 108.070312 216.625 128.558594 220.734375 C 124.804688 221.761719 120.839844 222.316406 116.761719 222.316406 C 113.875 222.316406 111.070312 222.039062 108.328125 221.519531 C 114.039062 239.3125 130.578125 252.265625 150.1875 252.625 C 134.855469 264.648438 115.539062 271.792969 94.546875 271.792969 C 90.925781 271.792969 87.351562 271.597656 83.863281 271.171875 C 103.679688 283.878906 127.21875 291.300781 152.519531 291.300781 C 234.914062 291.300781 279.984375 223.035156 279.984375 163.835938 C 279.984375 161.894531 279.933594 159.972656 279.855469 158.046875 C 288.613281 151.734375 296.199219 143.839844 302.203125 134.867188 Z M 302.203125 134.867188 "/>
</g>
</svg>
